<?xml version="1.0"?><svg xmlns="http://www.w3.org/2000/svg" width="76" height="54"><rect x="0" y="0" width="100%" height="100%" fill="rgb(129, 236, 236)" /><polyline points="6.3333333333333, 0, 12.666666666667, 9, 6.3333333333333, 18, 0, 9" fill="#222" fill-opacity="0.028666666666667" stroke="#000" stroke-opacity="0.02" transform="translate(-6.3333333333333, -9)" /><polyline points="6.3333333333333, 0, 12.666666666667, 9, 6.3333333333333, 18, 0, 9" fill="#222" fill-opacity="0.028666666666667" stroke="#000" stroke-opacity="0.02" transform="translate(69.666666666667, -9)" /><polyline points="6.3333333333333, 0, 12.666666666667, 9, 6.3333333333333, 18, 0, 9" fill="#222" fill-opacity="0.028666666666667" stroke="#000" stroke-opacity="0.02" transform="translate(-6.3333333333333, 45)" /><polyline points="6.3333333333333, 0, 12.666666666667, 9, 6.3333333333333, 18, 0, 9" fill="#222" fill-opacity="0.028666666666667" stroke="#000" stroke-opacity="0.02" transform="translate(69.666666666667, 45)" /><polyline points="6.3333333333333, 0, 12.666666666667, 9, 6.3333333333333, 18, 0, 9" fill="#222" fill-opacity="0.046" stroke="#000" stroke-opacity="0.02" transform="translate(6.3333333333333, -9)" /><polyline points="6.3333333333333, 0, 12.666666666667, 9, 6.3333333333333, 18, 0, 9" fill="#222" fill-opacity="0.046" stroke="#000" stroke-opacity="0.02" transform="translate(6.3333333333333, 45)" /><polyline points="6.3333333333333, 0, 12.666666666667, 9, 6.3333333333333, 18, 0, 9" fill="#222" fill-opacity="0.063333333333333" stroke="#000" stroke-opacity="0.02" transform="translate(19, -9)" /><polyline points="6.3333333333333, 0, 12.666666666667, 9, 6.3333333333333, 18, 0, 9" fill="#222" fill-opacity="0.063333333333333" stroke="#000" stroke-opacity="0.02" transform="translate(19, 45)" /><polyline points="6.3333333333333, 0, 12.666666666667, 9, 6.3333333333333, 18, 0, 9" fill="#222" fill-opacity="0.13266666666667" stroke="#000" stroke-opacity="0.02" transform="translate(31.666666666667, -9)" /><polyline points="6.3333333333333, 0, 12.666666666667, 9, 6.3333333333333, 18, 0, 9" fill="#222" fill-opacity="0.13266666666667" stroke="#000" stroke-opacity="0.02" transform="translate(31.666666666667, 45)" /><polyline points="6.3333333333333, 0, 12.666666666667, 9, 6.3333333333333, 18, 0, 9" fill="#ddd" fill-opacity="0.14133333333333" stroke="#000" stroke-opacity="0.02" transform="translate(44.333333333333, -9)" /><polyline points="6.3333333333333, 0, 12.666666666667, 9, 6.3333333333333, 18, 0, 9" fill="#ddd" fill-opacity="0.14133333333333" stroke="#000" stroke-opacity="0.02" transform="translate(44.333333333333, 45)" /><polyline points="6.3333333333333, 0, 12.666666666667, 9, 6.3333333333333, 18, 0, 9" fill="#222" fill-opacity="0.11533333333333" stroke="#000" stroke-opacity="0.02" transform="translate(57, -9)" /><polyline points="6.3333333333333, 0, 12.666666666667, 9, 6.3333333333333, 18, 0, 9" fill="#222" fill-opacity="0.11533333333333" stroke="#000" stroke-opacity="0.02" transform="translate(57, 45)" /><polyline points="6.3333333333333, 0, 12.666666666667, 9, 6.3333333333333, 18, 0, 9" fill="#222" fill-opacity="0.13266666666667" stroke="#000" stroke-opacity="0.02" transform="translate(0, 0)" /><polyline points="6.3333333333333, 0, 12.666666666667, 9, 6.3333333333333, 18, 0, 9" fill="#222" fill-opacity="0.13266666666667" stroke="#000" stroke-opacity="0.02" transform="translate(76, 0)" /><polyline points="6.3333333333333, 0, 12.666666666667, 9, 6.3333333333333, 18, 0, 9" fill="#ddd" fill-opacity="0.054666666666667" stroke="#000" stroke-opacity="0.02" transform="translate(12.666666666667, 0)" /><polyline points="6.3333333333333, 0, 12.666666666667, 9, 6.3333333333333, 18, 0, 9" fill="#ddd" fill-opacity="0.089333333333333" stroke="#000" stroke-opacity="0.02" transform="translate(25.333333333333, 0)" /><polyline points="6.3333333333333, 0, 12.666666666667, 9, 6.3333333333333, 18, 0, 9" fill="#222" fill-opacity="0.046" stroke="#000" stroke-opacity="0.02" transform="translate(38, 0)" /><polyline points="6.3333333333333, 0, 12.666666666667, 9, 6.3333333333333, 18, 0, 9" fill="#222" fill-opacity="0.080666666666667" stroke="#000" stroke-opacity="0.02" transform="translate(50.666666666667, 0)" /><polyline points="6.3333333333333, 0, 12.666666666667, 9, 6.3333333333333, 18, 0, 9" fill="#ddd" fill-opacity="0.02" stroke="#000" stroke-opacity="0.02" transform="translate(63.333333333333, 0)" /><polyline points="6.3333333333333, 0, 12.666666666667, 9, 6.3333333333333, 18, 0, 9" fill="#ddd" fill-opacity="0.037333333333333" stroke="#000" stroke-opacity="0.02" transform="translate(-6.3333333333333, 9)" /><polyline points="6.3333333333333, 0, 12.666666666667, 9, 6.3333333333333, 18, 0, 9" fill="#ddd" fill-opacity="0.037333333333333" stroke="#000" stroke-opacity="0.02" transform="translate(69.666666666667, 9)" /><polyline points="6.3333333333333, 0, 12.666666666667, 9, 6.3333333333333, 18, 0, 9" fill="#ddd" fill-opacity="0.072" stroke="#000" stroke-opacity="0.02" transform="translate(6.3333333333333, 9)" /><polyline points="6.3333333333333, 0, 12.666666666667, 9, 6.3333333333333, 18, 0, 9" fill="#222" fill-opacity="0.11533333333333" stroke="#000" stroke-opacity="0.02" transform="translate(19, 9)" /><polyline points="6.3333333333333, 0, 12.666666666667, 9, 6.3333333333333, 18, 0, 9" fill="#222" fill-opacity="0.15" stroke="#000" stroke-opacity="0.02" transform="translate(31.666666666667, 9)" /><polyline points="6.3333333333333, 0, 12.666666666667, 9, 6.3333333333333, 18, 0, 9" fill="#ddd" fill-opacity="0.02" stroke="#000" stroke-opacity="0.02" transform="translate(44.333333333333, 9)" /><polyline points="6.3333333333333, 0, 12.666666666667, 9, 6.3333333333333, 18, 0, 9" fill="#ddd" fill-opacity="0.072" stroke="#000" stroke-opacity="0.02" transform="translate(57, 9)" /><polyline points="6.3333333333333, 0, 12.666666666667, 9, 6.3333333333333, 18, 0, 9" fill="#ddd" fill-opacity="0.124" stroke="#000" stroke-opacity="0.02" transform="translate(0, 18)" /><polyline points="6.3333333333333, 0, 12.666666666667, 9, 6.3333333333333, 18, 0, 9" fill="#ddd" fill-opacity="0.124" stroke="#000" stroke-opacity="0.02" transform="translate(76, 18)" /><polyline points="6.3333333333333, 0, 12.666666666667, 9, 6.3333333333333, 18, 0, 9" fill="#222" fill-opacity="0.080666666666667" stroke="#000" stroke-opacity="0.02" transform="translate(12.666666666667, 18)" /><polyline points="6.3333333333333, 0, 12.666666666667, 9, 6.3333333333333, 18, 0, 9" fill="#222" fill-opacity="0.11533333333333" stroke="#000" stroke-opacity="0.02" transform="translate(25.333333333333, 18)" /><polyline points="6.3333333333333, 0, 12.666666666667, 9, 6.3333333333333, 18, 0, 9" fill="#222" fill-opacity="0.15" stroke="#000" stroke-opacity="0.02" transform="translate(38, 18)" /><polyline points="6.3333333333333, 0, 12.666666666667, 9, 6.3333333333333, 18, 0, 9" fill="#ddd" fill-opacity="0.124" stroke="#000" stroke-opacity="0.02" transform="translate(50.666666666667, 18)" /><polyline points="6.3333333333333, 0, 12.666666666667, 9, 6.3333333333333, 18, 0, 9" fill="#222" fill-opacity="0.063333333333333" stroke="#000" stroke-opacity="0.02" transform="translate(63.333333333333, 18)" /><polyline points="6.3333333333333, 0, 12.666666666667, 9, 6.3333333333333, 18, 0, 9" fill="#222" fill-opacity="0.13266666666667" stroke="#000" stroke-opacity="0.02" transform="translate(-6.3333333333333, 27)" /><polyline points="6.3333333333333, 0, 12.666666666667, 9, 6.3333333333333, 18, 0, 9" fill="#222" fill-opacity="0.13266666666667" stroke="#000" stroke-opacity="0.02" transform="translate(69.666666666667, 27)" /><polyline points="6.3333333333333, 0, 12.666666666667, 9, 6.3333333333333, 18, 0, 9" fill="#222" fill-opacity="0.028666666666667" stroke="#000" stroke-opacity="0.02" transform="translate(6.3333333333333, 27)" /><polyline points="6.3333333333333, 0, 12.666666666667, 9, 6.3333333333333, 18, 0, 9" fill="#ddd" fill-opacity="0.14133333333333" stroke="#000" stroke-opacity="0.02" transform="translate(19, 27)" /><polyline points="6.3333333333333, 0, 12.666666666667, 9, 6.3333333333333, 18, 0, 9" fill="#ddd" fill-opacity="0.02" stroke="#000" stroke-opacity="0.02" transform="translate(31.666666666667, 27)" /><polyline points="6.3333333333333, 0, 12.666666666667, 9, 6.3333333333333, 18, 0, 9" fill="#ddd" fill-opacity="0.124" stroke="#000" stroke-opacity="0.02" transform="translate(44.333333333333, 27)" /><polyline points="6.3333333333333, 0, 12.666666666667, 9, 6.3333333333333, 18, 0, 9" fill="#ddd" fill-opacity="0.072" stroke="#000" stroke-opacity="0.02" transform="translate(57, 27)" /><polyline points="6.3333333333333, 0, 12.666666666667, 9, 6.3333333333333, 18, 0, 9" fill="#ddd" fill-opacity="0.10666666666667" stroke="#000" stroke-opacity="0.02" transform="translate(0, 36)" /><polyline points="6.3333333333333, 0, 12.666666666667, 9, 6.3333333333333, 18, 0, 9" fill="#ddd" fill-opacity="0.10666666666667" stroke="#000" stroke-opacity="0.02" transform="translate(76, 36)" /><polyline points="6.3333333333333, 0, 12.666666666667, 9, 6.3333333333333, 18, 0, 9" fill="#222" fill-opacity="0.046" stroke="#000" stroke-opacity="0.02" transform="translate(12.666666666667, 36)" /><polyline points="6.3333333333333, 0, 12.666666666667, 9, 6.3333333333333, 18, 0, 9" fill="#222" fill-opacity="0.028666666666667" stroke="#000" stroke-opacity="0.02" transform="translate(25.333333333333, 36)" /><polyline points="6.3333333333333, 0, 12.666666666667, 9, 6.3333333333333, 18, 0, 9" fill="#ddd" fill-opacity="0.072" stroke="#000" stroke-opacity="0.02" transform="translate(38, 36)" /><polyline points="6.3333333333333, 0, 12.666666666667, 9, 6.3333333333333, 18, 0, 9" fill="#222" fill-opacity="0.028666666666667" stroke="#000" stroke-opacity="0.02" transform="translate(50.666666666667, 36)" /><polyline points="6.3333333333333, 0, 12.666666666667, 9, 6.3333333333333, 18, 0, 9" fill="#222" fill-opacity="0.028666666666667" stroke="#000" stroke-opacity="0.02" transform="translate(63.333333333333, 36)" /></svg>