<?xml version="1.0"?><svg xmlns="http://www.w3.org/2000/svg" width="393" height="226"><rect x="0" y="0" width="100%" height="100%" fill="rgb(162, 155, 254)" /><polyline points="0, 0, 65.529255553023, 37.833333333333, 0, 75.666666666667, 0, 0" fill="#ddd" fill-opacity="0.14133333333333" stroke="#000" stroke-opacity="0.02" transform="translate(0, -37.833333333333) rotate(180, 32.764627776511, 37.833333333333)" /><polyline points="0, 0, 65.529255553023, 37.833333333333, 0, 75.666666666667, 0, 0" fill="#ddd" fill-opacity="0.14133333333333" stroke="#000" stroke-opacity="0.02" transform="translate(0, 189.16666666667) rotate(180, 32.764627776511, 37.833333333333)" /><polyline points="0, 0, 65.529255553023, 37.833333333333, 0, 75.666666666667, 0, 0" fill="#ddd" fill-opacity="0.037333333333333" stroke="#000" stroke-opacity="0.02" transform="translate(65.529255553023, -37.833333333333) rotate(0, 32.764627776511, 37.833333333333)" /><polyline points="0, 0, 65.529255553023, 37.833333333333, 0, 75.666666666667, 0, 0" fill="#ddd" fill-opacity="0.037333333333333" stroke="#000" stroke-opacity="0.02" transform="translate(65.529255553023, 189.16666666667) rotate(0, 32.764627776511, 37.833333333333)" /><polyline points="0, 0, 65.529255553023, 37.833333333333, 0, 75.666666666667, 0, 0" fill="#222" fill-opacity="0.028666666666667" stroke="#000" stroke-opacity="0.02" transform="translate(131.05851110605, -37.833333333333) rotate(180, 32.764627776511, 37.833333333333)" /><polyline points="0, 0, 65.529255553023, 37.833333333333, 0, 75.666666666667, 0, 0" fill="#222" fill-opacity="0.028666666666667" stroke="#000" stroke-opacity="0.02" transform="translate(131.05851110605, 189.16666666667) rotate(180, 32.764627776511, 37.833333333333)" /><polyline points="0, 0, 65.529255553023, 37.833333333333, 0, 75.666666666667, 0, 0" fill="#222" fill-opacity="0.063333333333333" stroke="#000" stroke-opacity="0.02" transform="translate(196.58776665907, -37.833333333333) rotate(0, 32.764627776511, 37.833333333333)" /><polyline points="0, 0, 65.529255553023, 37.833333333333, 0, 75.666666666667, 0, 0" fill="#222" fill-opacity="0.063333333333333" stroke="#000" stroke-opacity="0.02" transform="translate(196.58776665907, 189.16666666667) rotate(0, 32.764627776511, 37.833333333333)" /><polyline points="0, 0, 65.529255553023, 37.833333333333, 0, 75.666666666667, 0, 0" fill="#ddd" fill-opacity="0.054666666666667" stroke="#000" stroke-opacity="0.02" transform="translate(262.11702221209, -37.833333333333) rotate(180, 32.764627776511, 37.833333333333)" /><polyline points="0, 0, 65.529255553023, 37.833333333333, 0, 75.666666666667, 0, 0" fill="#ddd" fill-opacity="0.054666666666667" stroke="#000" stroke-opacity="0.02" transform="translate(262.11702221209, 189.16666666667) rotate(180, 32.764627776511, 37.833333333333)" /><polyline points="0, 0, 65.529255553023, 37.833333333333, 0, 75.666666666667, 0, 0" fill="#222" fill-opacity="0.15" stroke="#000" stroke-opacity="0.02" transform="translate(327.64627776511, -37.833333333333) rotate(0, 32.764627776511, 37.833333333333)" /><polyline points="0, 0, 65.529255553023, 37.833333333333, 0, 75.666666666667, 0, 0" fill="#222" fill-opacity="0.15" stroke="#000" stroke-opacity="0.02" transform="translate(327.64627776511, 189.16666666667) rotate(0, 32.764627776511, 37.833333333333)" /><polyline points="0, 0, 65.529255553023, 37.833333333333, 0, 75.666666666667, 0, 0" fill="#ddd" fill-opacity="0.14133333333333" stroke="#000" stroke-opacity="0.02" transform="translate(0, 0) rotate(0, 32.764627776511, 37.833333333333)" /><polyline points="0, 0, 65.529255553023, 37.833333333333, 0, 75.666666666667, 0, 0" fill="#ddd" fill-opacity="0.10666666666667" stroke="#000" stroke-opacity="0.02" transform="translate(65.529255553023, 0) rotate(180, 32.764627776511, 37.833333333333)" /><polyline points="0, 0, 65.529255553023, 37.833333333333, 0, 75.666666666667, 0, 0" fill="#222" fill-opacity="0.063333333333333" stroke="#000" stroke-opacity="0.02" transform="translate(131.05851110605, 0) rotate(0, 32.764627776511, 37.833333333333)" /><polyline points="0, 0, 65.529255553023, 37.833333333333, 0, 75.666666666667, 0, 0" fill="#222" fill-opacity="0.13266666666667" stroke="#000" stroke-opacity="0.02" transform="translate(196.58776665907, 0) rotate(180, 32.764627776511, 37.833333333333)" /><polyline points="0, 0, 65.529255553023, 37.833333333333, 0, 75.666666666667, 0, 0" fill="#ddd" fill-opacity="0.10666666666667" stroke="#000" stroke-opacity="0.02" transform="translate(262.11702221209, 0) rotate(0, 32.764627776511, 37.833333333333)" /><polyline points="0, 0, 65.529255553023, 37.833333333333, 0, 75.666666666667, 0, 0" fill="#ddd" fill-opacity="0.037333333333333" stroke="#000" stroke-opacity="0.02" transform="translate(327.64627776511, 0) rotate(180, 32.764627776511, 37.833333333333)" /><polyline points="0, 0, 65.529255553023, 37.833333333333, 0, 75.666666666667, 0, 0" fill="#222" fill-opacity="0.13266666666667" stroke="#000" stroke-opacity="0.02" transform="translate(0, 37.833333333333) rotate(180, 32.764627776511, 37.833333333333)" /><polyline points="0, 0, 65.529255553023, 37.833333333333, 0, 75.666666666667, 0, 0" fill="#222" fill-opacity="0.13266666666667" stroke="#000" stroke-opacity="0.02" transform="translate(65.529255553023, 37.833333333333) rotate(0, 32.764627776511, 37.833333333333)" /><polyline points="0, 0, 65.529255553023, 37.833333333333, 0, 75.666666666667, 0, 0" fill="#ddd" fill-opacity="0.02" stroke="#000" stroke-opacity="0.02" transform="translate(131.05851110605, 37.833333333333) rotate(180, 32.764627776511, 37.833333333333)" /><polyline points="0, 0, 65.529255553023, 37.833333333333, 0, 75.666666666667, 0, 0" fill="#222" fill-opacity="0.13266666666667" stroke="#000" stroke-opacity="0.02" transform="translate(196.58776665907, 37.833333333333) rotate(0, 32.764627776511, 37.833333333333)" /><polyline points="0, 0, 65.529255553023, 37.833333333333, 0, 75.666666666667, 0, 0" fill="#222" fill-opacity="0.028666666666667" stroke="#000" stroke-opacity="0.02" transform="translate(262.11702221209, 37.833333333333) rotate(180, 32.764627776511, 37.833333333333)" /><polyline points="0, 0, 65.529255553023, 37.833333333333, 0, 75.666666666667, 0, 0" fill="#222" fill-opacity="0.080666666666667" stroke="#000" stroke-opacity="0.02" transform="translate(327.64627776511, 37.833333333333) rotate(0, 32.764627776511, 37.833333333333)" /><polyline points="0, 0, 65.529255553023, 37.833333333333, 0, 75.666666666667, 0, 0" fill="#222" fill-opacity="0.046" stroke="#000" stroke-opacity="0.02" transform="translate(0, 75.666666666667) rotate(0, 32.764627776511, 37.833333333333)" /><polyline points="0, 0, 65.529255553023, 37.833333333333, 0, 75.666666666667, 0, 0" fill="#ddd" fill-opacity="0.037333333333333" stroke="#000" stroke-opacity="0.02" transform="translate(65.529255553023, 75.666666666667) rotate(180, 32.764627776511, 37.833333333333)" /><polyline points="0, 0, 65.529255553023, 37.833333333333, 0, 75.666666666667, 0, 0" fill="#222" fill-opacity="0.15" stroke="#000" stroke-opacity="0.02" transform="translate(131.05851110605, 75.666666666667) rotate(0, 32.764627776511, 37.833333333333)" /><polyline points="0, 0, 65.529255553023, 37.833333333333, 0, 75.666666666667, 0, 0" fill="#222" fill-opacity="0.15" stroke="#000" stroke-opacity="0.02" transform="translate(196.58776665907, 75.666666666667) rotate(180, 32.764627776511, 37.833333333333)" /><polyline points="0, 0, 65.529255553023, 37.833333333333, 0, 75.666666666667, 0, 0" fill="#222" fill-opacity="0.046" stroke="#000" stroke-opacity="0.02" transform="translate(262.11702221209, 75.666666666667) rotate(0, 32.764627776511, 37.833333333333)" /><polyline points="0, 0, 65.529255553023, 37.833333333333, 0, 75.666666666667, 0, 0" fill="#ddd" fill-opacity="0.02" stroke="#000" stroke-opacity="0.02" transform="translate(327.64627776511, 75.666666666667) rotate(180, 32.764627776511, 37.833333333333)" /><polyline points="0, 0, 65.529255553023, 37.833333333333, 0, 75.666666666667, 0, 0" fill="#222" fill-opacity="0.098" stroke="#000" stroke-opacity="0.02" transform="translate(0, 113.5) rotate(180, 32.764627776511, 37.833333333333)" /><polyline points="0, 0, 65.529255553023, 37.833333333333, 0, 75.666666666667, 0, 0" fill="#222" fill-opacity="0.046" stroke="#000" stroke-opacity="0.02" transform="translate(65.529255553023, 113.5) rotate(0, 32.764627776511, 37.833333333333)" /><polyline points="0, 0, 65.529255553023, 37.833333333333, 0, 75.666666666667, 0, 0" fill="#222" fill-opacity="0.028666666666667" stroke="#000" stroke-opacity="0.02" transform="translate(131.05851110605, 113.5) rotate(180, 32.764627776511, 37.833333333333)" /><polyline points="0, 0, 65.529255553023, 37.833333333333, 0, 75.666666666667, 0, 0" fill="#222" fill-opacity="0.080666666666667" stroke="#000" stroke-opacity="0.02" transform="translate(196.58776665907, 113.5) rotate(0, 32.764627776511, 37.833333333333)" /><polyline points="0, 0, 65.529255553023, 37.833333333333, 0, 75.666666666667, 0, 0" fill="#ddd" fill-opacity="0.037333333333333" stroke="#000" stroke-opacity="0.02" transform="translate(262.11702221209, 113.5) rotate(180, 32.764627776511, 37.833333333333)" /><polyline points="0, 0, 65.529255553023, 37.833333333333, 0, 75.666666666667, 0, 0" fill="#222" fill-opacity="0.046" stroke="#000" stroke-opacity="0.02" transform="translate(327.64627776511, 113.5) rotate(0, 32.764627776511, 37.833333333333)" /><polyline points="0, 0, 65.529255553023, 37.833333333333, 0, 75.666666666667, 0, 0" fill="#ddd" fill-opacity="0.124" stroke="#000" stroke-opacity="0.02" transform="translate(0, 151.33333333333) rotate(0, 32.764627776511, 37.833333333333)" /><polyline points="0, 0, 65.529255553023, 37.833333333333, 0, 75.666666666667, 0, 0" fill="#ddd" fill-opacity="0.037333333333333" stroke="#000" stroke-opacity="0.02" transform="translate(65.529255553023, 151.33333333333) rotate(180, 32.764627776511, 37.833333333333)" /><polyline points="0, 0, 65.529255553023, 37.833333333333, 0, 75.666666666667, 0, 0" fill="#222" fill-opacity="0.098" stroke="#000" stroke-opacity="0.02" transform="translate(131.05851110605, 151.33333333333) rotate(0, 32.764627776511, 37.833333333333)" /><polyline points="0, 0, 65.529255553023, 37.833333333333, 0, 75.666666666667, 0, 0" fill="#222" fill-opacity="0.080666666666667" stroke="#000" stroke-opacity="0.02" transform="translate(196.58776665907, 151.33333333333) rotate(180, 32.764627776511, 37.833333333333)" /><polyline points="0, 0, 65.529255553023, 37.833333333333, 0, 75.666666666667, 0, 0" fill="#222" fill-opacity="0.046" stroke="#000" stroke-opacity="0.02" transform="translate(262.11702221209, 151.33333333333) rotate(0, 32.764627776511, 37.833333333333)" /><polyline points="0, 0, 65.529255553023, 37.833333333333, 0, 75.666666666667, 0, 0" fill="#ddd" fill-opacity="0.02" stroke="#000" stroke-opacity="0.02" transform="translate(327.64627776511, 151.33333333333) rotate(180, 32.764627776511, 37.833333333333)" /></svg>