<?xml version="1.0"?><svg xmlns="http://www.w3.org/2000/svg" width="259" height="299"><rect x="0" y="0" width="100%" height="100%" fill="rgb(108, 92, 231)" /><polyline points="0,24.941531628992,14.4,0,43.2,0,57.6,24.941531628992,43.2,49.883063257984,14.4,49.883063257984,0,24.941531628992" stroke="#000" stroke-opacity="0.02" fill-opacity="0.072" fill="#ddd" transform="translate(-28.8, -24.941531628992)" /><polyline points="0,24.941531628992,14.4,0,43.2,0,57.6,24.941531628992,43.2,49.883063257984,14.4,49.883063257984,0,24.941531628992" stroke="#000" stroke-opacity="0.02" fill-opacity="0.072" fill="#ddd" transform="translate(230.4, -24.941531628992)" /><polyline points="0,24.941531628992,14.4,0,43.2,0,57.6,24.941531628992,43.2,49.883063257984,14.4,49.883063257984,0,24.941531628992" stroke="#000" stroke-opacity="0.02" fill-opacity="0.072" fill="#ddd" transform="translate(-28.8, 274.35684791891)" /><polyline points="0,24.941531628992,14.4,0,43.2,0,57.6,24.941531628992,43.2,49.883063257984,14.4,49.883063257984,0,24.941531628992" stroke="#000" stroke-opacity="0.02" fill-opacity="0.072" fill="#ddd" transform="translate(230.4, 274.35684791891)" /><polyline points="0,24.941531628992,14.4,0,43.2,0,57.6,24.941531628992,43.2,49.883063257984,14.4,49.883063257984,0,24.941531628992" stroke="#000" stroke-opacity="0.02" fill-opacity="0.11533333333333" fill="#222" transform="translate(14.4, 0)" /><polyline points="0,24.941531628992,14.4,0,43.2,0,57.6,24.941531628992,43.2,49.883063257984,14.4,49.883063257984,0,24.941531628992" stroke="#000" stroke-opacity="0.02" fill-opacity="0.11533333333333" fill="#222" transform="translate(14.4, 299.2983795479)" /><polyline points="0,24.941531628992,14.4,0,43.2,0,57.6,24.941531628992,43.2,49.883063257984,14.4,49.883063257984,0,24.941531628992" stroke="#000" stroke-opacity="0.02" fill-opacity="0.072" fill="#ddd" transform="translate(57.6, -24.941531628992)" /><polyline points="0,24.941531628992,14.4,0,43.2,0,57.6,24.941531628992,43.2,49.883063257984,14.4,49.883063257984,0,24.941531628992" stroke="#000" stroke-opacity="0.02" fill-opacity="0.072" fill="#ddd" transform="translate(57.6, 274.35684791891)" /><polyline points="0,24.941531628992,14.4,0,43.2,0,57.6,24.941531628992,43.2,49.883063257984,14.4,49.883063257984,0,24.941531628992" stroke="#000" stroke-opacity="0.02" fill-opacity="0.037333333333333" fill="#ddd" transform="translate(100.8, 0)" /><polyline points="0,24.941531628992,14.4,0,43.2,0,57.6,24.941531628992,43.2,49.883063257984,14.4,49.883063257984,0,24.941531628992" stroke="#000" stroke-opacity="0.02" fill-opacity="0.037333333333333" fill="#ddd" transform="translate(100.8, 299.2983795479)" /><polyline points="0,24.941531628992,14.4,0,43.2,0,57.6,24.941531628992,43.2,49.883063257984,14.4,49.883063257984,0,24.941531628992" stroke="#000" stroke-opacity="0.02" fill-opacity="0.080666666666667" fill="#222" transform="translate(144, -24.941531628992)" /><polyline points="0,24.941531628992,14.4,0,43.2,0,57.6,24.941531628992,43.2,49.883063257984,14.4,49.883063257984,0,24.941531628992" stroke="#000" stroke-opacity="0.02" fill-opacity="0.080666666666667" fill="#222" transform="translate(144, 274.35684791891)" /><polyline points="0,24.941531628992,14.4,0,43.2,0,57.6,24.941531628992,43.2,49.883063257984,14.4,49.883063257984,0,24.941531628992" stroke="#000" stroke-opacity="0.02" fill-opacity="0.080666666666667" fill="#222" transform="translate(187.2, 0)" /><polyline points="0,24.941531628992,14.4,0,43.2,0,57.6,24.941531628992,43.2,49.883063257984,14.4,49.883063257984,0,24.941531628992" stroke="#000" stroke-opacity="0.02" fill-opacity="0.080666666666667" fill="#222" transform="translate(187.2, 299.2983795479)" /><polyline points="0,24.941531628992,14.4,0,43.2,0,57.6,24.941531628992,43.2,49.883063257984,14.4,49.883063257984,0,24.941531628992" stroke="#000" stroke-opacity="0.02" fill-opacity="0.10666666666667" fill="#ddd" transform="translate(-28.8, 24.941531628992)" /><polyline points="0,24.941531628992,14.4,0,43.2,0,57.6,24.941531628992,43.2,49.883063257984,14.4,49.883063257984,0,24.941531628992" stroke="#000" stroke-opacity="0.02" fill-opacity="0.10666666666667" fill="#ddd" transform="translate(230.4, 24.941531628992)" /><polyline points="0,24.941531628992,14.4,0,43.2,0,57.6,24.941531628992,43.2,49.883063257984,14.4,49.883063257984,0,24.941531628992" stroke="#000" stroke-opacity="0.02" fill-opacity="0.15" fill="#222" transform="translate(14.4, 49.883063257984)" /><polyline points="0,24.941531628992,14.4,0,43.2,0,57.6,24.941531628992,43.2,49.883063257984,14.4,49.883063257984,0,24.941531628992" stroke="#000" stroke-opacity="0.02" fill-opacity="0.124" fill="#ddd" transform="translate(57.6, 24.941531628992)" /><polyline points="0,24.941531628992,14.4,0,43.2,0,57.6,24.941531628992,43.2,49.883063257984,14.4,49.883063257984,0,24.941531628992" stroke="#000" stroke-opacity="0.02" fill-opacity="0.11533333333333" fill="#222" transform="translate(100.8, 49.883063257984)" /><polyline points="0,24.941531628992,14.4,0,43.2,0,57.6,24.941531628992,43.2,49.883063257984,14.4,49.883063257984,0,24.941531628992" stroke="#000" stroke-opacity="0.02" fill-opacity="0.072" fill="#ddd" transform="translate(144, 24.941531628992)" /><polyline points="0,24.941531628992,14.4,0,43.2,0,57.6,24.941531628992,43.2,49.883063257984,14.4,49.883063257984,0,24.941531628992" stroke="#000" stroke-opacity="0.02" fill-opacity="0.063333333333333" fill="#222" transform="translate(187.2, 49.883063257984)" /><polyline points="0,24.941531628992,14.4,0,43.2,0,57.6,24.941531628992,43.2,49.883063257984,14.4,49.883063257984,0,24.941531628992" stroke="#000" stroke-opacity="0.02" fill-opacity="0.13266666666667" fill="#222" transform="translate(-28.8, 74.824594886975)" /><polyline points="0,24.941531628992,14.4,0,43.2,0,57.6,24.941531628992,43.2,49.883063257984,14.4,49.883063257984,0,24.941531628992" stroke="#000" stroke-opacity="0.02" fill-opacity="0.13266666666667" fill="#222" transform="translate(230.4, 74.824594886975)" /><polyline points="0,24.941531628992,14.4,0,43.2,0,57.6,24.941531628992,43.2,49.883063257984,14.4,49.883063257984,0,24.941531628992" stroke="#000" stroke-opacity="0.02" fill-opacity="0.046" fill="#222" transform="translate(14.4, 99.766126515967)" /><polyline points="0,24.941531628992,14.4,0,43.2,0,57.6,24.941531628992,43.2,49.883063257984,14.4,49.883063257984,0,24.941531628992" stroke="#000" stroke-opacity="0.02" fill-opacity="0.046" fill="#222" transform="translate(57.6, 74.824594886975)" /><polyline points="0,24.941531628992,14.4,0,43.2,0,57.6,24.941531628992,43.2,49.883063257984,14.4,49.883063257984,0,24.941531628992" stroke="#000" stroke-opacity="0.02" fill-opacity="0.063333333333333" fill="#222" transform="translate(100.8, 99.766126515967)" /><polyline points="0,24.941531628992,14.4,0,43.2,0,57.6,24.941531628992,43.2,49.883063257984,14.4,49.883063257984,0,24.941531628992" stroke="#000" stroke-opacity="0.02" fill-opacity="0.037333333333333" fill="#ddd" transform="translate(144, 74.824594886975)" /><polyline points="0,24.941531628992,14.4,0,43.2,0,57.6,24.941531628992,43.2,49.883063257984,14.4,49.883063257984,0,24.941531628992" stroke="#000" stroke-opacity="0.02" fill-opacity="0.063333333333333" fill="#222" transform="translate(187.2, 99.766126515967)" /><polyline points="0,24.941531628992,14.4,0,43.2,0,57.6,24.941531628992,43.2,49.883063257984,14.4,49.883063257984,0,24.941531628992" stroke="#000" stroke-opacity="0.02" fill-opacity="0.063333333333333" fill="#222" transform="translate(-28.8, 124.70765814496)" /><polyline points="0,24.941531628992,14.4,0,43.2,0,57.6,24.941531628992,43.2,49.883063257984,14.4,49.883063257984,0,24.941531628992" stroke="#000" stroke-opacity="0.02" fill-opacity="0.063333333333333" fill="#222" transform="translate(230.4, 124.70765814496)" /><polyline points="0,24.941531628992,14.4,0,43.2,0,57.6,24.941531628992,43.2,49.883063257984,14.4,49.883063257984,0,24.941531628992" stroke="#000" stroke-opacity="0.02" fill-opacity="0.054666666666667" fill="#ddd" transform="translate(14.4, 149.64918977395)" /><polyline points="0,24.941531628992,14.4,0,43.2,0,57.6,24.941531628992,43.2,49.883063257984,14.4,49.883063257984,0,24.941531628992" stroke="#000" stroke-opacity="0.02" fill-opacity="0.063333333333333" fill="#222" transform="translate(57.6, 124.70765814496)" /><polyline points="0,24.941531628992,14.4,0,43.2,0,57.6,24.941531628992,43.2,49.883063257984,14.4,49.883063257984,0,24.941531628992" stroke="#000" stroke-opacity="0.02" fill-opacity="0.098" fill="#222" transform="translate(100.8, 149.64918977395)" /><polyline points="0,24.941531628992,14.4,0,43.2,0,57.6,24.941531628992,43.2,49.883063257984,14.4,49.883063257984,0,24.941531628992" stroke="#000" stroke-opacity="0.02" fill-opacity="0.02" fill="#ddd" transform="translate(144, 124.70765814496)" /><polyline points="0,24.941531628992,14.4,0,43.2,0,57.6,24.941531628992,43.2,49.883063257984,14.4,49.883063257984,0,24.941531628992" stroke="#000" stroke-opacity="0.02" fill-opacity="0.054666666666667" fill="#ddd" transform="translate(187.2, 149.64918977395)" /><polyline points="0,24.941531628992,14.4,0,43.2,0,57.6,24.941531628992,43.2,49.883063257984,14.4,49.883063257984,0,24.941531628992" stroke="#000" stroke-opacity="0.02" fill-opacity="0.14133333333333" fill="#ddd" transform="translate(-28.8, 174.59072140294)" /><polyline points="0,24.941531628992,14.4,0,43.2,0,57.6,24.941531628992,43.2,49.883063257984,14.4,49.883063257984,0,24.941531628992" stroke="#000" stroke-opacity="0.02" fill-opacity="0.14133333333333" fill="#ddd" transform="translate(230.4, 174.59072140294)" /><polyline points="0,24.941531628992,14.4,0,43.2,0,57.6,24.941531628992,43.2,49.883063257984,14.4,49.883063257984,0,24.941531628992" stroke="#000" stroke-opacity="0.02" fill-opacity="0.098" fill="#222" transform="translate(14.4, 199.53225303193)" /><polyline points="0,24.941531628992,14.4,0,43.2,0,57.6,24.941531628992,43.2,49.883063257984,14.4,49.883063257984,0,24.941531628992" stroke="#000" stroke-opacity="0.02" fill-opacity="0.063333333333333" fill="#222" transform="translate(57.6, 174.59072140294)" /><polyline points="0,24.941531628992,14.4,0,43.2,0,57.6,24.941531628992,43.2,49.883063257984,14.4,49.883063257984,0,24.941531628992" stroke="#000" stroke-opacity="0.02" fill-opacity="0.124" fill="#ddd" transform="translate(100.8, 199.53225303193)" /><polyline points="0,24.941531628992,14.4,0,43.2,0,57.6,24.941531628992,43.2,49.883063257984,14.4,49.883063257984,0,24.941531628992" stroke="#000" stroke-opacity="0.02" fill-opacity="0.037333333333333" fill="#ddd" transform="translate(144, 174.59072140294)" /><polyline points="0,24.941531628992,14.4,0,43.2,0,57.6,24.941531628992,43.2,49.883063257984,14.4,49.883063257984,0,24.941531628992" stroke="#000" stroke-opacity="0.02" fill-opacity="0.15" fill="#222" transform="translate(187.2, 199.53225303193)" /><polyline points="0,24.941531628992,14.4,0,43.2,0,57.6,24.941531628992,43.2,49.883063257984,14.4,49.883063257984,0,24.941531628992" stroke="#000" stroke-opacity="0.02" fill-opacity="0.10666666666667" fill="#ddd" transform="translate(-28.8, 224.47378466093)" /><polyline points="0,24.941531628992,14.4,0,43.2,0,57.6,24.941531628992,43.2,49.883063257984,14.4,49.883063257984,0,24.941531628992" stroke="#000" stroke-opacity="0.02" fill-opacity="0.10666666666667" fill="#ddd" transform="translate(230.4, 224.47378466093)" /><polyline points="0,24.941531628992,14.4,0,43.2,0,57.6,24.941531628992,43.2,49.883063257984,14.4,49.883063257984,0,24.941531628992" stroke="#000" stroke-opacity="0.02" fill-opacity="0.037333333333333" fill="#ddd" transform="translate(14.4, 249.41531628992)" /><polyline points="0,24.941531628992,14.4,0,43.2,0,57.6,24.941531628992,43.2,49.883063257984,14.4,49.883063257984,0,24.941531628992" stroke="#000" stroke-opacity="0.02" fill-opacity="0.054666666666667" fill="#ddd" transform="translate(57.6, 224.47378466093)" /><polyline points="0,24.941531628992,14.4,0,43.2,0,57.6,24.941531628992,43.2,49.883063257984,14.4,49.883063257984,0,24.941531628992" stroke="#000" stroke-opacity="0.02" fill-opacity="0.02" fill="#ddd" transform="translate(100.8, 249.41531628992)" /><polyline points="0,24.941531628992,14.4,0,43.2,0,57.6,24.941531628992,43.2,49.883063257984,14.4,49.883063257984,0,24.941531628992" stroke="#000" stroke-opacity="0.02" fill-opacity="0.072" fill="#ddd" transform="translate(144, 224.47378466093)" /><polyline points="0,24.941531628992,14.4,0,43.2,0,57.6,24.941531628992,43.2,49.883063257984,14.4,49.883063257984,0,24.941531628992" stroke="#000" stroke-opacity="0.02" fill-opacity="0.046" fill="#222" transform="translate(187.2, 249.41531628992)" /></svg>