<?xml version="1.0"?><svg xmlns="http://www.w3.org/2000/svg" width="67" height="78"><rect x="0" y="0" width="100%" height="100%" fill="rgb(9, 132, 227)" /><rect x="-7.1666666666667" y="-7.1666666666667" width="14.333333333333" height="14.333333333333" stroke="#000" stroke-opacity="0.02" fill="#ddd" fill-opacity="0.054666666666667" stroke-width="1" /><rect x="60.659394908487" y="-7.1666666666667" width="14.333333333333" height="14.333333333333" stroke="#000" stroke-opacity="0.02" fill="#ddd" fill-opacity="0.054666666666667" stroke-width="1" /><rect x="-7.1666666666667" y="71.152123150308" width="14.333333333333" height="14.333333333333" stroke="#000" stroke-opacity="0.02" fill="#ddd" fill-opacity="0.054666666666667" stroke-width="1" /><rect x="60.659394908487" y="71.152123150308" width="14.333333333333" height="14.333333333333" stroke="#000" stroke-opacity="0.02" fill="#ddd" fill-opacity="0.054666666666667" stroke-width="1" /><rect x="26.74636412091" y="12.413030787577" width="14.333333333333" height="14.333333333333" stroke="#000" stroke-opacity="0.02" fill="#ddd" fill-opacity="0.02" stroke-width="1" /><rect x="-7.1666666666667" y="31.992728241821" width="14.333333333333" height="14.333333333333" stroke="#000" stroke-opacity="0.02" fill="#222" fill-opacity="0.15" stroke-width="1" /><rect x="60.659394908487" y="31.992728241821" width="14.333333333333" height="14.333333333333" stroke="#000" stroke-opacity="0.02" fill="#222" fill-opacity="0.15" stroke-width="1" /><rect x="26.74636412091" y="51.572425696064" width="14.333333333333" height="14.333333333333" stroke="#000" stroke-opacity="0.02" fill="#222" fill-opacity="0.080666666666667" stroke-width="1" /><polyline points="0, 0, 12.413030787577, 7.1666666666667, 0, 14.333333333333, 0, 0" stroke="#000" stroke-opacity="0.02" fill="#ddd" fill-opacity="0.124" stroke-width="1" transform="translate(7.1666666666667, -7.1666666666667) rotate(0, 7.1666666666667, 6.2065153937885)" /><polyline points="0, 0, 12.413030787577, 7.1666666666667, 0, 14.333333333333, 0, 0" stroke="#000" stroke-opacity="0.02" fill="#ddd" fill-opacity="0.124" stroke-width="1" transform="translate(7.1666666666667, 85.485456483641) rotate(0, 7.1666666666667, 6.2065153937885) scale(1, -1)" /><polyline points="0, 0, 12.413030787577, 7.1666666666667, 0, 14.333333333333, 0, 0" stroke="#000" stroke-opacity="0.02" fill="#ddd" fill-opacity="0.02" stroke-width="1" transform="translate(60.659394908487, -7.1666666666667) rotate(0, 7.1666666666667, 6.2065153937885) scale(-1, 1)" /><polyline points="0, 0, 12.413030787577, 7.1666666666667, 0, 14.333333333333, 0, 0" stroke="#000" stroke-opacity="0.02" fill="#ddd" fill-opacity="0.02" stroke-width="1" transform="translate(60.659394908487, 85.485456483641) rotate(0, 7.1666666666667, 6.2065153937885) scale(-1, -1)" /><polyline points="0, 0, 12.413030787577, 7.1666666666667, 0, 14.333333333333, 0, 0" stroke="#000" stroke-opacity="0.02" fill="#222" fill-opacity="0.028666666666667" stroke-width="1" transform="translate(41.079697454244, 12.413030787577)" /><polyline points="0, 0, 12.413030787577, 7.1666666666667, 0, 14.333333333333, 0, 0" stroke="#000" stroke-opacity="0.02" fill="#222" fill-opacity="0.15" stroke-width="1" transform="translate(26.74636412091, 12.413030787577) scale(-1, 1)" /><polyline points="0, 0, 12.413030787577, 7.1666666666667, 0, 14.333333333333, 0, 0" stroke="#000" stroke-opacity="0.02" fill="#ddd" fill-opacity="0.054666666666667" stroke-width="1" transform="translate(41.079697454244, 65.905759029398) scale(1, -1)" /><polyline points="0, 0, 12.413030787577, 7.1666666666667, 0, 14.333333333333, 0, 0" stroke="#000" stroke-opacity="0.02" fill="#222" fill-opacity="0.028666666666667" stroke-width="1" transform="translate(26.74636412091, 65.905759029398) scale(-1, -1)" /><polyline points="0, 0, 12.413030787577, 7.1666666666667, 0, 14.333333333333, 0, 0" stroke="#000" stroke-opacity="0.02" fill="#ddd" fill-opacity="0.089333333333333" stroke-width="1" transform="translate(7.1666666666667, 31.992728241821)" /><polyline points="0, 0, 12.413030787577, 7.1666666666667, 0, 14.333333333333, 0, 0" stroke="#000" stroke-opacity="0.02" fill="#222" fill-opacity="0.098" stroke-width="1" transform="translate(60.659394908487, 31.992728241821) scale(-1, 1)" /><rect x="0" y="0" width="14.333333333333" height="14.333333333333" stroke="#000" stroke-opacity="0.02" fill="#222" fill-opacity="0.063333333333333" stroke-width="1" transform="translate(7.1666666666667, 7.1666666666667) rotate(-30, 0, 0)" /><rect x="0" y="0" width="14.333333333333" height="14.333333333333" stroke="#000" stroke-opacity="0.02" fill="#222" fill-opacity="0.028666666666667" stroke-width="1" transform="scale(-1, 1) translate(-60.659394908487, 7.1666666666667) rotate(-30, 0, 0)" /><rect x="0" y="0" width="14.333333333333" height="14.333333333333" stroke="#000" stroke-opacity="0.02" fill="#ddd" fill-opacity="0.02" stroke-width="1" transform="translate(7.1666666666667, 17.659394908487) rotate(30, 0, 14.333333333333)" /><rect x="0" y="0" width="14.333333333333" height="14.333333333333" stroke="#000" stroke-opacity="0.02" fill="#ddd" fill-opacity="0.02" stroke-width="1" transform="scale(-1, 1) translate(-60.659394908487, 17.659394908487) rotate(30, 0, 14.333333333333)" /><rect x="0" y="0" width="14.333333333333" height="14.333333333333" stroke="#000" stroke-opacity="0.02" fill="#222" fill-opacity="0.046" stroke-width="1" transform="scale(1, -1) translate(7.1666666666667, -60.659394908487) rotate(30, 0, 14.333333333333)" /><rect x="0" y="0" width="14.333333333333" height="14.333333333333" stroke="#000" stroke-opacity="0.02" fill="#222" fill-opacity="0.028666666666667" stroke-width="1" transform="scale(-1, -1) translate(-60.659394908487, -60.659394908487) rotate(30, 0, 14.333333333333)" /><rect x="0" y="0" width="14.333333333333" height="14.333333333333" stroke="#000" stroke-opacity="0.02" fill="#ddd" fill-opacity="0.10666666666667" stroke-width="1" transform="scale(1, -1) translate(7.1666666666667, -71.152123150308) rotate(-30, 0, 0)" /><rect x="0" y="0" width="14.333333333333" height="14.333333333333" stroke="#000" stroke-opacity="0.02" fill="#222" fill-opacity="0.13266666666667" stroke-width="1" transform="scale(-1, -1) translate(-60.659394908487, -71.152123150308) rotate(-30, 0, 0)" /></svg>