<?xml version="1.0"?><svg xmlns="http://www.w3.org/2000/svg" width="60" height="60"><rect x="0" y="0" width="100%" height="100%" fill="rgb(116, 185, 255)" /><polyline points="3.3,0,6.7,0,10,3.3,10,6.7,6.7,10,3.3,10,0,6.7,0,3.3,3.3,0" fill="#ddd" fill-opacity="0.02" stroke="#000" stroke-opacity="0.02" transform="translate(0, 0)" /><polyline points="3.3,0,6.7,0,10,3.3,10,6.7,6.7,10,3.3,10,0,6.7,0,3.3,3.3,0" fill="#222" fill-opacity="0.028666666666667" stroke="#000" stroke-opacity="0.02" transform="translate(10, 0)" /><polyline points="3.3,0,6.7,0,10,3.3,10,6.7,6.7,10,3.3,10,0,6.7,0,3.3,3.3,0" fill="#222" fill-opacity="0.063333333333333" stroke="#000" stroke-opacity="0.02" transform="translate(20, 0)" /><polyline points="3.3,0,6.7,0,10,3.3,10,6.7,6.7,10,3.3,10,0,6.7,0,3.3,3.3,0" fill="#222" fill-opacity="0.098" stroke="#000" stroke-opacity="0.02" transform="translate(30, 0)" /><polyline points="3.3,0,6.7,0,10,3.3,10,6.7,6.7,10,3.3,10,0,6.7,0,3.3,3.3,0" fill="#ddd" fill-opacity="0.10666666666667" stroke="#000" stroke-opacity="0.02" transform="translate(40, 0)" /><polyline points="3.3,0,6.7,0,10,3.3,10,6.7,6.7,10,3.3,10,0,6.7,0,3.3,3.3,0" fill="#222" fill-opacity="0.098" stroke="#000" stroke-opacity="0.02" transform="translate(50, 0)" /><polyline points="3.3,0,6.7,0,10,3.3,10,6.7,6.7,10,3.3,10,0,6.7,0,3.3,3.3,0" fill="#222" fill-opacity="0.098" stroke="#000" stroke-opacity="0.02" transform="translate(0, 10)" /><polyline points="3.3,0,6.7,0,10,3.3,10,6.7,6.7,10,3.3,10,0,6.7,0,3.3,3.3,0" fill="#ddd" fill-opacity="0.14133333333333" stroke="#000" stroke-opacity="0.02" transform="translate(10, 10)" /><polyline points="3.3,0,6.7,0,10,3.3,10,6.7,6.7,10,3.3,10,0,6.7,0,3.3,3.3,0" fill="#222" fill-opacity="0.13266666666667" stroke="#000" stroke-opacity="0.02" transform="translate(20, 10)" /><polyline points="3.3,0,6.7,0,10,3.3,10,6.7,6.7,10,3.3,10,0,6.7,0,3.3,3.3,0" fill="#ddd" fill-opacity="0.037333333333333" stroke="#000" stroke-opacity="0.02" transform="translate(30, 10)" /><polyline points="3.3,0,6.7,0,10,3.3,10,6.7,6.7,10,3.3,10,0,6.7,0,3.3,3.3,0" fill="#ddd" fill-opacity="0.089333333333333" stroke="#000" stroke-opacity="0.02" transform="translate(40, 10)" /><polyline points="3.3,0,6.7,0,10,3.3,10,6.7,6.7,10,3.3,10,0,6.7,0,3.3,3.3,0" fill="#222" fill-opacity="0.11533333333333" stroke="#000" stroke-opacity="0.02" transform="translate(50, 10)" /><polyline points="3.3,0,6.7,0,10,3.3,10,6.7,6.7,10,3.3,10,0,6.7,0,3.3,3.3,0" fill="#ddd" fill-opacity="0.02" stroke="#000" stroke-opacity="0.02" transform="translate(0, 20)" /><polyline points="3.3,0,6.7,0,10,3.3,10,6.7,6.7,10,3.3,10,0,6.7,0,3.3,3.3,0" fill="#222" fill-opacity="0.063333333333333" stroke="#000" stroke-opacity="0.02" transform="translate(10, 20)" /><polyline points="3.3,0,6.7,0,10,3.3,10,6.7,6.7,10,3.3,10,0,6.7,0,3.3,3.3,0" fill="#ddd" fill-opacity="0.089333333333333" stroke="#000" stroke-opacity="0.02" transform="translate(20, 20)" /><polyline points="3.3,0,6.7,0,10,3.3,10,6.7,6.7,10,3.3,10,0,6.7,0,3.3,3.3,0" fill="#222" fill-opacity="0.028666666666667" stroke="#000" stroke-opacity="0.02" transform="translate(30, 20)" /><polyline points="3.3,0,6.7,0,10,3.3,10,6.7,6.7,10,3.3,10,0,6.7,0,3.3,3.3,0" fill="#ddd" fill-opacity="0.089333333333333" stroke="#000" stroke-opacity="0.02" transform="translate(40, 20)" /><polyline points="3.3,0,6.7,0,10,3.3,10,6.7,6.7,10,3.3,10,0,6.7,0,3.3,3.3,0" fill="#222" fill-opacity="0.098" stroke="#000" stroke-opacity="0.02" transform="translate(50, 20)" /><polyline points="3.3,0,6.7,0,10,3.3,10,6.7,6.7,10,3.3,10,0,6.7,0,3.3,3.3,0" fill="#ddd" fill-opacity="0.02" stroke="#000" stroke-opacity="0.02" transform="translate(0, 30)" /><polyline points="3.3,0,6.7,0,10,3.3,10,6.7,6.7,10,3.3,10,0,6.7,0,3.3,3.3,0" fill="#ddd" fill-opacity="0.072" stroke="#000" stroke-opacity="0.02" transform="translate(10, 30)" /><polyline points="3.3,0,6.7,0,10,3.3,10,6.7,6.7,10,3.3,10,0,6.7,0,3.3,3.3,0" fill="#ddd" fill-opacity="0.02" stroke="#000" stroke-opacity="0.02" transform="translate(20, 30)" /><polyline points="3.3,0,6.7,0,10,3.3,10,6.7,6.7,10,3.3,10,0,6.7,0,3.3,3.3,0" fill="#ddd" fill-opacity="0.089333333333333" stroke="#000" stroke-opacity="0.02" transform="translate(30, 30)" /><polyline points="3.3,0,6.7,0,10,3.3,10,6.7,6.7,10,3.3,10,0,6.7,0,3.3,3.3,0" fill="#222" fill-opacity="0.13266666666667" stroke="#000" stroke-opacity="0.02" transform="translate(40, 30)" /><polyline points="3.3,0,6.7,0,10,3.3,10,6.7,6.7,10,3.3,10,0,6.7,0,3.3,3.3,0" fill="#ddd" fill-opacity="0.037333333333333" stroke="#000" stroke-opacity="0.02" transform="translate(50, 30)" /><polyline points="3.3,0,6.7,0,10,3.3,10,6.7,6.7,10,3.3,10,0,6.7,0,3.3,3.3,0" fill="#ddd" fill-opacity="0.054666666666667" stroke="#000" stroke-opacity="0.02" transform="translate(0, 40)" /><polyline points="3.3,0,6.7,0,10,3.3,10,6.7,6.7,10,3.3,10,0,6.7,0,3.3,3.3,0" fill="#ddd" fill-opacity="0.10666666666667" stroke="#000" stroke-opacity="0.02" transform="translate(10, 40)" /><polyline points="3.3,0,6.7,0,10,3.3,10,6.7,6.7,10,3.3,10,0,6.7,0,3.3,3.3,0" fill="#222" fill-opacity="0.13266666666667" stroke="#000" stroke-opacity="0.02" transform="translate(20, 40)" /><polyline points="3.3,0,6.7,0,10,3.3,10,6.7,6.7,10,3.3,10,0,6.7,0,3.3,3.3,0" fill="#ddd" fill-opacity="0.10666666666667" stroke="#000" stroke-opacity="0.02" transform="translate(30, 40)" /><polyline points="3.3,0,6.7,0,10,3.3,10,6.7,6.7,10,3.3,10,0,6.7,0,3.3,3.3,0" fill="#222" fill-opacity="0.098" stroke="#000" stroke-opacity="0.02" transform="translate(40, 40)" /><polyline points="3.3,0,6.7,0,10,3.3,10,6.7,6.7,10,3.3,10,0,6.7,0,3.3,3.3,0" fill="#222" fill-opacity="0.13266666666667" stroke="#000" stroke-opacity="0.02" transform="translate(50, 40)" /><polyline points="3.3,0,6.7,0,10,3.3,10,6.7,6.7,10,3.3,10,0,6.7,0,3.3,3.3,0" fill="#ddd" fill-opacity="0.14133333333333" stroke="#000" stroke-opacity="0.02" transform="translate(0, 50)" /><polyline points="3.3,0,6.7,0,10,3.3,10,6.7,6.7,10,3.3,10,0,6.7,0,3.3,3.3,0" fill="#ddd" fill-opacity="0.124" stroke="#000" stroke-opacity="0.02" transform="translate(10, 50)" /><polyline points="3.3,0,6.7,0,10,3.3,10,6.7,6.7,10,3.3,10,0,6.7,0,3.3,3.3,0" fill="#ddd" fill-opacity="0.124" stroke="#000" stroke-opacity="0.02" transform="translate(20, 50)" /><polyline points="3.3,0,6.7,0,10,3.3,10,6.7,6.7,10,3.3,10,0,6.7,0,3.3,3.3,0" fill="#ddd" fill-opacity="0.054666666666667" stroke="#000" stroke-opacity="0.02" transform="translate(30, 50)" /><polyline points="3.3,0,6.7,0,10,3.3,10,6.7,6.7,10,3.3,10,0,6.7,0,3.3,3.3,0" fill="#ddd" fill-opacity="0.089333333333333" stroke="#000" stroke-opacity="0.02" transform="translate(40, 50)" /><polyline points="3.3,0,6.7,0,10,3.3,10,6.7,6.7,10,3.3,10,0,6.7,0,3.3,3.3,0" fill="#222" fill-opacity="0.080666666666667" stroke="#000" stroke-opacity="0.02" transform="translate(50, 50)" /></svg>