<?xml version="1.0"?><svg xmlns="http://www.w3.org/2000/svg" width="325" height="188"><rect x="0" y="0" width="100%" height="100%" fill="rgb(129, 236, 236)" /><polyline points="0, 0, 54.270925303825, 31.333333333333, 0, 62.666666666667, 0, 0" fill="#222" fill-opacity="0.11533333333333" stroke="#000" stroke-opacity="0.02" transform="translate(0, -31.333333333333) rotate(180, 27.135462651912, 31.333333333333)" /><polyline points="0, 0, 54.270925303825, 31.333333333333, 0, 62.666666666667, 0, 0" fill="#222" fill-opacity="0.11533333333333" stroke="#000" stroke-opacity="0.02" transform="translate(0, 156.66666666667) rotate(180, 27.135462651912, 31.333333333333)" /><polyline points="0, 0, 54.270925303825, 31.333333333333, 0, 62.666666666667, 0, 0" fill="#ddd" fill-opacity="0.14133333333333" stroke="#000" stroke-opacity="0.02" transform="translate(54.270925303825, -31.333333333333) rotate(0, 27.135462651912, 31.333333333333)" /><polyline points="0, 0, 54.270925303825, 31.333333333333, 0, 62.666666666667, 0, 0" fill="#ddd" fill-opacity="0.14133333333333" stroke="#000" stroke-opacity="0.02" transform="translate(54.270925303825, 156.66666666667) rotate(0, 27.135462651912, 31.333333333333)" /><polyline points="0, 0, 54.270925303825, 31.333333333333, 0, 62.666666666667, 0, 0" fill="#ddd" fill-opacity="0.02" stroke="#000" stroke-opacity="0.02" transform="translate(108.54185060765, -31.333333333333) rotate(180, 27.135462651912, 31.333333333333)" /><polyline points="0, 0, 54.270925303825, 31.333333333333, 0, 62.666666666667, 0, 0" fill="#ddd" fill-opacity="0.02" stroke="#000" stroke-opacity="0.02" transform="translate(108.54185060765, 156.66666666667) rotate(180, 27.135462651912, 31.333333333333)" /><polyline points="0, 0, 54.270925303825, 31.333333333333, 0, 62.666666666667, 0, 0" fill="#222" fill-opacity="0.063333333333333" stroke="#000" stroke-opacity="0.02" transform="translate(162.81277591147, -31.333333333333) rotate(0, 27.135462651912, 31.333333333333)" /><polyline points="0, 0, 54.270925303825, 31.333333333333, 0, 62.666666666667, 0, 0" fill="#222" fill-opacity="0.063333333333333" stroke="#000" stroke-opacity="0.02" transform="translate(162.81277591147, 156.66666666667) rotate(0, 27.135462651912, 31.333333333333)" /><polyline points="0, 0, 54.270925303825, 31.333333333333, 0, 62.666666666667, 0, 0" fill="#222" fill-opacity="0.080666666666667" stroke="#000" stroke-opacity="0.02" transform="translate(217.0837012153, -31.333333333333) rotate(180, 27.135462651912, 31.333333333333)" /><polyline points="0, 0, 54.270925303825, 31.333333333333, 0, 62.666666666667, 0, 0" fill="#222" fill-opacity="0.080666666666667" stroke="#000" stroke-opacity="0.02" transform="translate(217.0837012153, 156.66666666667) rotate(180, 27.135462651912, 31.333333333333)" /><polyline points="0, 0, 54.270925303825, 31.333333333333, 0, 62.666666666667, 0, 0" fill="#222" fill-opacity="0.13266666666667" stroke="#000" stroke-opacity="0.02" transform="translate(271.35462651912, -31.333333333333) rotate(0, 27.135462651912, 31.333333333333)" /><polyline points="0, 0, 54.270925303825, 31.333333333333, 0, 62.666666666667, 0, 0" fill="#222" fill-opacity="0.13266666666667" stroke="#000" stroke-opacity="0.02" transform="translate(271.35462651912, 156.66666666667) rotate(0, 27.135462651912, 31.333333333333)" /><polyline points="0, 0, 54.270925303825, 31.333333333333, 0, 62.666666666667, 0, 0" fill="#ddd" fill-opacity="0.054666666666667" stroke="#000" stroke-opacity="0.02" transform="translate(0, 0) rotate(0, 27.135462651912, 31.333333333333)" /><polyline points="0, 0, 54.270925303825, 31.333333333333, 0, 62.666666666667, 0, 0" fill="#ddd" fill-opacity="0.124" stroke="#000" stroke-opacity="0.02" transform="translate(54.270925303825, 0) rotate(180, 27.135462651912, 31.333333333333)" /><polyline points="0, 0, 54.270925303825, 31.333333333333, 0, 62.666666666667, 0, 0" fill="#ddd" fill-opacity="0.10666666666667" stroke="#000" stroke-opacity="0.02" transform="translate(108.54185060765, 0) rotate(0, 27.135462651912, 31.333333333333)" /><polyline points="0, 0, 54.270925303825, 31.333333333333, 0, 62.666666666667, 0, 0" fill="#ddd" fill-opacity="0.054666666666667" stroke="#000" stroke-opacity="0.02" transform="translate(162.81277591147, 0) rotate(180, 27.135462651912, 31.333333333333)" /><polyline points="0, 0, 54.270925303825, 31.333333333333, 0, 62.666666666667, 0, 0" fill="#ddd" fill-opacity="0.054666666666667" stroke="#000" stroke-opacity="0.02" transform="translate(217.0837012153, 0) rotate(0, 27.135462651912, 31.333333333333)" /><polyline points="0, 0, 54.270925303825, 31.333333333333, 0, 62.666666666667, 0, 0" fill="#ddd" fill-opacity="0.124" stroke="#000" stroke-opacity="0.02" transform="translate(271.35462651912, 0) rotate(180, 27.135462651912, 31.333333333333)" /><polyline points="0, 0, 54.270925303825, 31.333333333333, 0, 62.666666666667, 0, 0" fill="#222" fill-opacity="0.028666666666667" stroke="#000" stroke-opacity="0.02" transform="translate(0, 31.333333333333) rotate(180, 27.135462651912, 31.333333333333)" /><polyline points="0, 0, 54.270925303825, 31.333333333333, 0, 62.666666666667, 0, 0" fill="#ddd" fill-opacity="0.02" stroke="#000" stroke-opacity="0.02" transform="translate(54.270925303825, 31.333333333333) rotate(0, 27.135462651912, 31.333333333333)" /><polyline points="0, 0, 54.270925303825, 31.333333333333, 0, 62.666666666667, 0, 0" fill="#ddd" fill-opacity="0.10666666666667" stroke="#000" stroke-opacity="0.02" transform="translate(108.54185060765, 31.333333333333) rotate(180, 27.135462651912, 31.333333333333)" /><polyline points="0, 0, 54.270925303825, 31.333333333333, 0, 62.666666666667, 0, 0" fill="#ddd" fill-opacity="0.02" stroke="#000" stroke-opacity="0.02" transform="translate(162.81277591147, 31.333333333333) rotate(0, 27.135462651912, 31.333333333333)" /><polyline points="0, 0, 54.270925303825, 31.333333333333, 0, 62.666666666667, 0, 0" fill="#222" fill-opacity="0.15" stroke="#000" stroke-opacity="0.02" transform="translate(217.0837012153, 31.333333333333) rotate(180, 27.135462651912, 31.333333333333)" /><polyline points="0, 0, 54.270925303825, 31.333333333333, 0, 62.666666666667, 0, 0" fill="#ddd" fill-opacity="0.124" stroke="#000" stroke-opacity="0.02" transform="translate(271.35462651912, 31.333333333333) rotate(0, 27.135462651912, 31.333333333333)" /><polyline points="0, 0, 54.270925303825, 31.333333333333, 0, 62.666666666667, 0, 0" fill="#222" fill-opacity="0.028666666666667" stroke="#000" stroke-opacity="0.02" transform="translate(0, 62.666666666667) rotate(0, 27.135462651912, 31.333333333333)" /><polyline points="0, 0, 54.270925303825, 31.333333333333, 0, 62.666666666667, 0, 0" fill="#222" fill-opacity="0.13266666666667" stroke="#000" stroke-opacity="0.02" transform="translate(54.270925303825, 62.666666666667) rotate(180, 27.135462651912, 31.333333333333)" /><polyline points="0, 0, 54.270925303825, 31.333333333333, 0, 62.666666666667, 0, 0" fill="#222" fill-opacity="0.15" stroke="#000" stroke-opacity="0.02" transform="translate(108.54185060765, 62.666666666667) rotate(0, 27.135462651912, 31.333333333333)" /><polyline points="0, 0, 54.270925303825, 31.333333333333, 0, 62.666666666667, 0, 0" fill="#ddd" fill-opacity="0.124" stroke="#000" stroke-opacity="0.02" transform="translate(162.81277591147, 62.666666666667) rotate(180, 27.135462651912, 31.333333333333)" /><polyline points="0, 0, 54.270925303825, 31.333333333333, 0, 62.666666666667, 0, 0" fill="#222" fill-opacity="0.15" stroke="#000" stroke-opacity="0.02" transform="translate(217.0837012153, 62.666666666667) rotate(0, 27.135462651912, 31.333333333333)" /><polyline points="0, 0, 54.270925303825, 31.333333333333, 0, 62.666666666667, 0, 0" fill="#222" fill-opacity="0.15" stroke="#000" stroke-opacity="0.02" transform="translate(271.35462651912, 62.666666666667) rotate(180, 27.135462651912, 31.333333333333)" /><polyline points="0, 0, 54.270925303825, 31.333333333333, 0, 62.666666666667, 0, 0" fill="#222" fill-opacity="0.13266666666667" stroke="#000" stroke-opacity="0.02" transform="translate(0, 94) rotate(180, 27.135462651912, 31.333333333333)" /><polyline points="0, 0, 54.270925303825, 31.333333333333, 0, 62.666666666667, 0, 0" fill="#222" fill-opacity="0.098" stroke="#000" stroke-opacity="0.02" transform="translate(54.270925303825, 94) rotate(0, 27.135462651912, 31.333333333333)" /><polyline points="0, 0, 54.270925303825, 31.333333333333, 0, 62.666666666667, 0, 0" fill="#222" fill-opacity="0.098" stroke="#000" stroke-opacity="0.02" transform="translate(108.54185060765, 94) rotate(180, 27.135462651912, 31.333333333333)" /><polyline points="0, 0, 54.270925303825, 31.333333333333, 0, 62.666666666667, 0, 0" fill="#ddd" fill-opacity="0.124" stroke="#000" stroke-opacity="0.02" transform="translate(162.81277591147, 94) rotate(0, 27.135462651912, 31.333333333333)" /><polyline points="0, 0, 54.270925303825, 31.333333333333, 0, 62.666666666667, 0, 0" fill="#ddd" fill-opacity="0.124" stroke="#000" stroke-opacity="0.02" transform="translate(217.0837012153, 94) rotate(180, 27.135462651912, 31.333333333333)" /><polyline points="0, 0, 54.270925303825, 31.333333333333, 0, 62.666666666667, 0, 0" fill="#ddd" fill-opacity="0.14133333333333" stroke="#000" stroke-opacity="0.02" transform="translate(271.35462651912, 94) rotate(0, 27.135462651912, 31.333333333333)" /><polyline points="0, 0, 54.270925303825, 31.333333333333, 0, 62.666666666667, 0, 0" fill="#222" fill-opacity="0.028666666666667" stroke="#000" stroke-opacity="0.02" transform="translate(0, 125.33333333333) rotate(0, 27.135462651912, 31.333333333333)" /><polyline points="0, 0, 54.270925303825, 31.333333333333, 0, 62.666666666667, 0, 0" fill="#ddd" fill-opacity="0.054666666666667" stroke="#000" stroke-opacity="0.02" transform="translate(54.270925303825, 125.33333333333) rotate(180, 27.135462651912, 31.333333333333)" /><polyline points="0, 0, 54.270925303825, 31.333333333333, 0, 62.666666666667, 0, 0" fill="#222" fill-opacity="0.098" stroke="#000" stroke-opacity="0.02" transform="translate(108.54185060765, 125.33333333333) rotate(0, 27.135462651912, 31.333333333333)" /><polyline points="0, 0, 54.270925303825, 31.333333333333, 0, 62.666666666667, 0, 0" fill="#ddd" fill-opacity="0.02" stroke="#000" stroke-opacity="0.02" transform="translate(162.81277591147, 125.33333333333) rotate(180, 27.135462651912, 31.333333333333)" /><polyline points="0, 0, 54.270925303825, 31.333333333333, 0, 62.666666666667, 0, 0" fill="#ddd" fill-opacity="0.037333333333333" stroke="#000" stroke-opacity="0.02" transform="translate(217.0837012153, 125.33333333333) rotate(0, 27.135462651912, 31.333333333333)" /><polyline points="0, 0, 54.270925303825, 31.333333333333, 0, 62.666666666667, 0, 0" fill="#222" fill-opacity="0.098" stroke="#000" stroke-opacity="0.02" transform="translate(271.35462651912, 125.33333333333) rotate(180, 27.135462651912, 31.333333333333)" /></svg>